#!OML:ASF F:\VICON\USERDATA\INSTALL\Justin_Nancy\Justin_Nancy.ASF
:FULLY-SPECIFIED
:DEGREES
101
root -10.3588 17.4917 -18.146 1.22096 -6.92788 -4.02238
lowerback 6.54543 0.810575 3.56865
upperback 0.521598 1.42777 2.77374
thorax -3.11716 0.677258 0.731248
lowerneck -15.7547 -3.2542 -9.92763
upperneck 22.082 -3.32218 5.61676
head 9.88203 -1.74243 3.1959
rclavicle 1.35174e-014 2.06736e-014
rhumerus -27.8528 -8.76731 -80.1111
rradius 34.6146
rwrist 3.82746
rhand -13.5393 14.5192
rfingers 7.12502
rthumb 12.5733 -15.0824
lclavicle 1.35174e-014 2.06736e-014
lhumerus -35.0893 13.6634 83.332
lradius 27.0657
lwrist -8.54066
lhand -15.5794 20.8464
lfingers 7.12502
lthumb 10.6059 50.5588
rfemur -1.14381 5.05259 30.8398
rtibia 20.5216
rfoot -13.2233 -6.70419
rtoes 6.12393
lfemur -30.0856 1.69629 -14.6973
ltibia 36.6341
lfoot -7.18946 7.9227
ltoes -3.65257
102
root -10.3637 17.4878 -18.0096 1.44248 -7.06492 -4.12144
lowerback 6.35061 0.894336 3.6081
upperback 0.463274 1.53382 2.77933
thorax -3.06617 0.729809 0.708292
lowerneck -15.3483 -3.30851 -9.71213
upperneck 21.6338 -3.41438 5.33204
head 9.64648 -1.79799 3.04136
rclavicle -2.83268e-015 -2.74323e-014
rhumerus -27.7991 -8.50344 -80.1782
rradius 35.0671
rwrist 3.65338
rhand -13.3817 14.1055
rfingers 7.12502
rthumb 12.7252 -15.4867
lclavicle -2.83268e-015 -2.74323e-014
lhumerus -35.1869 13.5543 83.475
lradius 27.1765
lwrist -8.35981
lhand -16.2406 21.7826
lfingers 7.12502
lthumb 9.96806 51.5266
rfemur -0.72103 4.91048 30.9068
rtibia 20.2614
rfoot -13.2821 -6.60317
rtoes 4.88665
lfemur -30.0645 1.30405 -14.4758
ltibia 34.009
lfoot -7.23993 8.08986
ltoes -5.77866
103
root -10.3668 17.4775 -17.8703 1.69657 -7.20773 -4.55486
lowerback 6.12008 0.921952 4.08231
upperback 0.472979 1.59064 2.84063
thorax -2.9153 0.7542 0.506097
lowerneck -15.5542 -3.32684 -9.74208
upperneck 21.6723 -3.42349 5.3801
head 9.70079 -1.79706 3.0615
rclavicle -3.04141e-014 -3.61788e-014
rhumerus -27.5708 -8.37101 -80.3087
rradius 35.4607
rwrist 3.72941
rhand -13.0704 13.5134
rfingers 7.12502
rthumb 13.0253 -16.06
lclavicle -3.04141e-014 -3.61788e-014
lhumerus -35.1847 13.7575 83.42
lradius 27.1445
lwrist -8.53923
lhand -16.6019 21.452
lfingers 7.12502
lthumb 9.61943 51.2124
rfemur -0.248065 4.96549 31.3621
rtibia 19.9438
rfoot -13.4862 -6.60219
rtoes 4.85584
lfemur -30.0753 0.970595 -13.8805
ltibia 31.4576
lfoot -7.6254 8.29136
ltoes -6.8594
104
root -10.3664 17.4636 -17.733 1.87413 -7.36714 -4.57782
lowerback 5.85417 0.934886 4.10663
upperback 0.542509 1.58959 2.8628
thorax -2.69431 0.757368 0.520867
lowerneck -15.8281 -3.30722 -9.77978
upperneck 21.7563 -3.34053 5.30306
head 9.77482 -1.76781 3.05121
rclavicle 3.10104e-014 5.56597e-015
rhumerus -27.1995 -7.99734 -80.3737
rradius 35.6809
rwrist 3.56723
rhand -13.1878 13.4631
rfingers 7.12502
rthumb 12.9122 -16.1175
lclavicle 3.10104e-014 5.56597e-015
lhumerus -35.05 13.9799 83.5662
lradius 27.082
lwrist -8.6593
lhand -15.9243 23.5131
lfingers 7.12502
lthumb 10.2732 53.2422
rfemur 0.260087 4.99114 31.3413
rtibia 19.5672
rfoot -13.6405 -6.53413
rtoes 4.93019
lfemur -30.0557 0.414432 -13.673
ltibia 29.0264
lfoot -7.9741 8.51589
ltoes -8.1863
105
root -10.3649 17.4495 -17.5926 1.94288 -7.44816 -4.76256
lowerback 5.90672 0.992277 4.28446
upperback 0.490972 1.68489 2.91398
thorax -2.77174 0.801229 0.465556
lowerneck -15.9625 -3.34643 -9.71242
upperneck 21.8945 -3.37577 5.19241
head 9.84929 -1.7912 2.99707
rclavicle 5.76476e-015 3.97569e-016
rhumerus -26.9468 -7.87528 -80.3309
rradius 35.6263
rwrist 3.46116
rhand -13.4404 13.5582
rfingers 7.12502
rthumb 12.6687 -16.0376
lclavicle 5.76476e-015 3.97569e-016
lhumerus -35.0354 13.9593 83.6926
lradius 26.8061
lwrist -8.51919
lhand -15.5459 24.7517
lfingers 7.12502
lthumb 10.6382 54.4624
rfemur 0.943152 4.82484 31.4836
rtibia 19.1551
rfoot -13.7668 -6.43254
rtoes 4.46382
lfemur -29.9767 -0.138735 -13.3072
ltibia 26.8193
lfoot -7.93881 8.65621
ltoes -9.11372
106
root -10.365 17.4375 -17.444 1.93867 -7.45089 -4.91429
lowerback 5.97892 1.0791 4.46977
upperback 0.435491 1.82025 2.91017
thorax -2.86086 0.86422 0.345491
lowerneck -15.9474 -3.45197 -9.75191
upperneck 21.9312 -3.54049 5.2921
head 9.8759 -1.86009 3.01737
rclavicle -1.56046e-014 4.37326e-015
rhumerus -27.0593 -7.78121 -80.2596
rradius 35.9395
rwrist 3.29257
rhand -13.5194 13.8602
rfingers 7.12502
rthumb 12.5925 -15.7402
lclavicle -1.56046e-014 4.37326e-015
lhumerus -35.13 13.7602 83.7574
lradius 26.5772
lwrist -8.38525
lhand -15.8485 24.5656
lfingers 7.12502
lthumb 10.3463 54.2911
rfemur 1.67695 4.58942 31.5987
rtibia 18.8598
rfoot -14.0652 -6.3584
rtoes 4.28642
lfemur -29.7842 -1.06553 -12.8567
ltibia 24.7192
lfoot -8.23691 9.15141
ltoes -7.86835
107
root -10.367 17.4246 -17.3052 2.11827 -7.50093 -5.15858
lowerback 5.91107 1.11242 4.63502
upperback 0.333471 1.87868 2.98995
thorax -2.92458 0.889468 0.331594
lowerneck -15.6873 -3.41179 -9.81904
upperneck 21.8387 -3.50953 5.36718
head 9.79402 -1.84518 3.05984
rclavicle -2.9768e-014 -1.98785e-015
rhumerus -27.1414 -7.57583 -80.2385
rradius 36.3245
rwrist 3.04397
rhand -13.3029 14.2681
rfingers 7.12502
rthumb 12.8012 -15.3194
lclavicle -2.9768e-014 -1.98785e-015
lhumerus -35.1975 13.6472 83.8441
lradius 26.374
lwrist -8.37183
lhand -16.0447 24.5889
lfingers 7.12502
lthumb 10.157 54.3237
rfemur 2.21382 4.56165 31.8197
rtibia 18.5341
rfoot -14.2351 -6.18279
rtoes 4.73177
lfemur -29.8536 -2.00392 -12.2295
ltibia 22.8695
lfoot -8.75737 9.7849
ltoes -7.97983
108
root -10.3719 17.4218 -17.172 2.40661 -7.62619 -5.01955
lowerback 5.64155 1.14517 4.38841
upperback 0.284743 1.88954 2.95977
thorax -2.8302 0.899331 0.442376
lowerneck -15.6966 -3.2762 -9.78285
upperneck 21.7879 -3.32691 5.36976
head 9.76092 -1.75638 3.07856
rclavicle 3.62782e-015 -1.15295e-014
rhumerus -26.8493 -7.38326 -80.2826
rradius 36.4115
rwrist 2.83356
rhand -13.3061 13.9849
rfingers 7.12502
rthumb 12.7981 -15.6028
lclavicle 3.62782e-015 -1.15295e-014
lhumerus -35.1278 14.1456 83.7454
lradius 26.11
lwrist -8.92547
lhand -16.3127 24.0934
lfingers 7.12502
lthumb 9.89846 53.8406
rfemur 2.51273 4.72051 31.6106
rtibia 18.3046
rfoot -14.467 -5.91224
rtoes 4.86849
lfemur -30.0579 -3.30025 -11.837
ltibia 21.2571
lfoot -9.38454 10.9537
ltoes -9.66438
109
root -10.3705 17.4164 -17.0326 2.52958 -7.57269 -4.93767
lowerback 5.38651 1.08474 4.30973
upperback 0.379796 1.78186 2.94938
thorax -2.59327 0.851419 0.490097
lowerneck -15.885 -3.22661 -9.80295
upperneck 21.6782 -3.22554 5.35618
head 9.74896 -1.70834 3.08801
rclavicle -2.16675e-014 -1.98785e-014
rhumerus -26.3242 -7.27042 -80.3224
rradius 36.2994
rwrist 2.95686
rhand -13.3209 13.761
rfingers 7.12502
rthumb 12.7839 -15.8276
lclavicle -2.16675e-014 -1.98785e-014
lhumerus -35.0071 14.594 83.6867
lradius 25.9903
lwrist -9.27848
lhand -16.354 23.177
lfingers 7.12502
lthumb 9.85865 52.9261
rfemur 2.95849 4.51525 31.431
rtibia 18.2003
rfoot -14.7224 -5.74274
rtoes 4.18443
lfemur -30.1244 -4.99081 -11.3121
ltibia 19.9456
lfoot -10.169 12.368
ltoes -11.2881
110
root -10.3662 17.4014 -16.8949 2.57377 -7.58265 -4.986
lowerback 5.38203 1.04817 4.32266
upperback 0.267069 1.7407 2.99014
thorax -2.70918 0.828217 0.526981
lowerneck -15.5624 -3.13629 -9.82564
upperneck 21.6765 -3.11967 5.32482
head 9.67875 -1.66908 3.09638
rclavicle -2.83268e-015 -6.36111e-015
rhumerus -26.2888 -7.0442 -80.2627
rradius 36.3031
rwrist 2.89852
rhand -13.1721 13.6906
rfingers 7.12502
rthumb 12.9273 -15.889
lclavicle -2.83268e-015 -6.36111e-015
lhumerus -35.2234 14.7435 83.6476
lradius 25.7382
lwrist -9.37697
lhand -16.6865 22.426
lfingers 7.12502
lthumb 9.53787 52.1901
rfemur 3.41871 4.383 31.4002
rtibia 18.2141
rfoot -14.8256 -5.67954
rtoes 3.57468
lfemur -30.0582 -6.85046 -10.5768
ltibia 18.8302
lfoot -10.749 14.0676
ltoes -12.7445
111
root -10.3653 17.3817 -16.7645 2.74972 -7.58679 -5.12917
lowerback 5.2927 1.03623 4.35986
upperback 0.115389 1.73103 3.05785
thorax -2.81729 0.820359 0.577292
lowerneck -15.2608 -2.99636 -9.86676
upperneck 21.7915 -2.96793 5.40558
head 9.651 -1.59904 3.15518
rclavicle 2.03257e-014 -1.66979e-014
rhumerus -26.2664 -6.92753 -80.2211
rradius 36.2408
rwrist 2.80494
rhand -13.4013 13.9265
rfingers 7.12502
rthumb 12.7064 -15.667
lclavicle 2.03257e-014 -1.66979e-014
lhumerus -35.537 14.6893 83.6367
lradius 25.701
lwrist -9.26236
lhand -16.7454 22.5792
lfingers 7.12502
lthumb 9.48097 52.3459
rfemur 3.75203 4.49027 31.5129
rtibia 18.2088
rfoot -14.9009 -5.68677
rtoes 3.53641
lfemur -30.1809 -7.26424 -10.2554
ltibia 18.0816
lfoot -10.795 14.3905
ltoes -13.7174
112
root -10.3647 17.3755 -16.6279 2.92696 -7.58139 -4.98627
lowerback 5.12121 1.07994 4.19259
upperback 0.103811 1.76601 2.96428
thorax -2.73403 0.840817 0.574757
lowerneck -15.5491 -3.03528 -9.70461
upperneck 21.9583 -3.03869 5.40411
head 9.7668 -1.61722 3.11979
rclavicle -2.75814e-014 -1.35174e-014
rhumerus -26.0536 -7.1047 -80.2568
rradius 36.1844
rwrist 2.86203
rhand -13.5178 14.0297
rfingers 7.12502
rthumb 12.594 -15.5707
lclavicle -2.75814e-014 -1.35174e-014
lhumerus -35.4828 14.343 83.7016
lradius 25.5979
lwrist -9.06318
lhand -17.3394 21.7102
lfingers 7.12502
lthumb 8.90786 51.5022
rfemur 4.01426 4.46534 31.2744
rtibia 18.2492
rfoot -14.9681 -5.54363
rtoes 3.2166
lfemur -30.2992 -6.56652 -10.7403
ltibia 17.7318
lfoot -10.7979 13.5261
ltoes -12.7238
113
root -10.3573 17.3675 -16.4928 2.91328 -7.56105 -4.98749
lowerback 5.28275 1.09142 4.21779
upperback 0.0633842 1.79432 2.92313
thorax -2.8639 0.851934 0.512428
lowerneck -15.5906 -3.13854 -9.60111
upperneck 21.8848 -3.19457 5.36329
head 9.75937 -1.68374 3.06576
rclavicle 6.4605e-015 2.62396e-014
rhumerus -26.0261 -7.37981 -80.2063
rradius 36.3086
rwrist 3.10195
rhand -13.3269 14.1005
rfingers 7.12502
rthumb 12.778 -15.4884
lclavicle 6.4605e-015 2.62396e-014
lhumerus -35.4261 14.2768 83.669
lradius 25.3369
lwrist -9.04925
lhand -17.8113 20.3199
lfingers 7.12502
lthumb 8.45248 50.1308
rfemur 4.40807 4.45484 31.2046
rtibia 18.345
rfoot -14.9512 -5.5161
rtoes 2.06963
lfemur -30.2284 -5.3334 -11.3998
ltibia 17.7163
lfoot -9.8812 12.4327
ltoes -11.3312
114
root -10.3561 17.359 -16.3645 2.81328 -7.41526 -5.16729
lowerback 5.52127 1.03253 4.32036
upperback 0.0927412 1.73907 3.01064
thorax -2.96857 0.822021 0.545197
lowerneck -15.7663 -3.17892 -9.62397
upperneck 21.9815 -3.22319 5.33676
head 9.8295 -1.70092 3.05693
rclavicle 7.95139e-016 0
rhumerus -26.0112 -7.14515 -80.2161
rradius 36.622
rwrist 2.90361
rhand -13.1862 13.754
rfingers 7.12502
rthumb 12.9137 -15.8264
lclavicle 7.95139e-016 0
lhumerus -35.2586 14.3691 83.7472
lradius 25.1346
lwrist -8.98339
lhand -17.3977 21.6129
lfingers 7.12502
lthumb 8.85156 51.4072
rfemur 4.89589 4.61417 31.4318
rtibia 18.4873
rfoot -14.8059 -5.67161
rtoes 2.20801
lfemur -30.1129 -4.17443 -11.8411
ltibia 17.9522
lfoot -8.74249 11.3695
ltoes -9.70465
